<svg width="102" height="27" viewBox="0 0 102 27" fill="none" xmlns="http://www.w3.org/2000/svg">
<g id="Group 124">
<path id="Union" fill-rule="evenodd" clip-rule="evenodd" d="M8.89741 4.90839C10.1677 4.91344 11.4386 4.91206 12.7099 4.90426C13.5765 4.91008 14.4436 4.91249 15.3112 4.91149C16.257 4.90994 16.852 5.08612 17.26 5.9253C18.4036 8.28675 19.5401 10.6477 20.6693 13.0081C20.6757 13.0217 20.6848 13.034 20.696 13.0441C20.7072 13.0542 20.7203 13.062 20.7345 13.067C20.7487 13.072 20.7638 13.0742 20.7789 13.0734C20.7939 13.0725 20.8087 13.0687 20.8223 13.0622L25.0877 11.0006C25.1057 10.9919 25.1195 10.9765 25.1261 10.9576C25.1328 10.9388 25.1318 10.9182 25.1233 10.9001C24.195 8.96108 23.2641 7.02463 22.3306 5.09076C21.6826 3.74828 21.1782 2.85191 20.8176 2.40167C18.912 0.0200747 16.4588 -0.0272644 13.6184 0.00860604C12.2389 0.00483703 10.7373 0.00198239 9.37187 4.14902e-05C8.08708 -0.00201911 7.15208 0.0726749 6.56687 0.224129C3.22406 1.08958 1.15315 4.36903 1.82388 7.77366C2.10335 9.19156 3.04537 11.0338 3.86919 12.6449C4.03849 12.9759 4.20279 13.2972 4.35533 13.6031C4.37772 13.6479 4.41675 13.6821 4.46392 13.6983C4.51109 13.7145 4.56259 13.7114 4.60724 13.6897L8.79078 11.6697C8.79983 11.6656 8.80794 11.6596 8.81462 11.6521C8.82131 11.6446 8.82645 11.6358 8.82975 11.6262C8.83306 11.6166 8.83445 11.6063 8.83387 11.596C8.83328 11.5857 8.83071 11.5756 8.82632 11.5662C8.16693 10.1815 7.50754 8.80139 6.84814 7.42593C6.43396 6.56203 6.56069 5.58067 7.44933 5.12785C7.7409 4.97949 8.2236 4.90633 8.89741 4.90839ZM18.4375 21.1759C18.8734 20.3277 18.6366 19.8385 18.227 18.9923L18.2269 18.992C18.182 18.8993 18.135 18.8023 18.0867 18.7001C17.5478 17.5616 17.0007 16.4236 16.4454 15.2862C16.4374 15.2689 16.4365 15.2492 16.4429 15.2313C16.4492 15.2134 16.4623 15.1987 16.4794 15.1903L20.7418 13.1442C20.7621 13.1345 20.7855 13.1331 20.807 13.1403C20.8286 13.1475 20.8467 13.1627 20.8577 13.1828C21.5727 14.5376 22.2475 15.9131 22.8822 17.3092C23.8002 19.3275 23.8822 21.5406 22.7649 23.494C21.4621 25.806 19.4762 26.7735 16.8983 26.7997C12.842 26.8399 10.2745 26.8461 9.19581 26.8183C7.14551 26.7647 5.52382 25.9904 4.33073 24.4955C3.97528 24.0514 3.47249 23.1561 2.82237 21.8095C1.88067 19.8622 0.94258 17.9123 0.00809517 15.9599C0.00347787 15.9507 0.000775401 15.9407 0.00014341 15.9304C-0.00048858 15.9201 0.000973487 15.9098 0.00442585 15.9C0.00788057 15.8902 0.0132643 15.8812 0.0202633 15.8734C0.0272648 15.8657 0.03574 15.8594 0.0451939 15.8548L4.25655 13.8287C4.27725 13.8188 4.29971 13.813 4.32265 13.8117C4.34559 13.8104 4.36854 13.8137 4.39022 13.8213C4.4119 13.8289 4.43187 13.8407 4.44898 13.856C4.46608 13.8714 4.47999 13.8899 4.48991 13.9107C5.59027 16.2113 6.69682 18.5053 7.80954 20.7925C8.16036 21.5143 8.60081 21.9424 9.38899 21.9485C10.3946 21.9558 12.9677 21.9537 17.1085 21.9424C17.6607 21.9413 18.1037 21.6858 18.4375 21.1759Z" fill="black"/>
<g id="MADE OF ZERO">
<path d="M47.2382 21.8563H34.3091V18.2098L41.7847 8.52675H35.1669V4.88029H46.6561V8.52675L39.1805 18.2098H47.2382V21.8563Z" fill="black"/>
<path d="M68.5609 13.6134C68.5609 14.2263 68.5303 14.594 68.4077 15.1762H55.2641C55.7543 17.2292 57.5313 18.5162 59.9517 18.5162C61.6368 18.5162 62.6478 18.0566 63.6895 16.8309H68.132C66.9984 20.3241 63.475 22.2546 60.0436 22.2546C54.8658 22.2546 50.8523 18.3937 50.8523 13.4296C50.8523 8.43483 54.8045 4.48193 59.7985 4.48193C64.8537 4.48193 68.5609 8.3429 68.5609 13.6134ZM64.5473 11.591C64.0265 9.41539 62.3721 8.22033 59.8598 8.22033C57.4394 8.22033 55.785 9.41539 55.1416 11.591H64.5473Z" fill="black"/>
<path d="M81.0503 8.40418C78.5993 8.46547 77.4044 9.7831 77.4044 12.4184V21.8563H73.3296V4.88029H77.0674V6.53499C78.1397 4.97222 78.9976 4.48193 80.7439 4.48193H81.0503V8.40418Z" fill="black"/>
<path d="M102 13.4909C102 18.2711 97.8944 22.2546 92.9617 22.2546C87.9984 22.2546 83.9542 18.2711 83.9542 13.3683C83.9542 8.49611 87.9984 4.48193 92.9311 4.48193C98.0476 4.48193 102 8.43483 102 13.4909ZM97.8944 13.3683C97.8944 10.5492 95.6885 8.22033 92.9617 8.22033C90.2962 8.22033 88.0597 10.5185 88.0597 13.307C88.0597 16.218 90.235 18.5162 92.9923 18.5162C95.6885 18.5162 97.8944 16.218 97.8944 13.3683Z" fill="black"/>
</g>
</g>
</svg>
